<svg xmlns="http://www.w3.org/2000/svg" xmlns:xlink="http://www.w3.org/1999/xlink" xmlns:inkscape="http://www.inkscape.org/namespaces/inkscape" version="1.1" width="583.5" height="561.75" viewBox="0 0 583.5 561.75">
<defs>
<clipPath id="clip_0">
<path transform="matrix(.24,0,0,.24,0,0)" d="M0 0H2431.25V2340.625H0Z" clip-rule="evenodd"/>
</clipPath>
<clipPath id="clip_1">
<path transform="matrix(.24,0,0,.24,0,0)" d="M0 0H2430.4437V2338.5933H0Z" clip-rule="evenodd"/>
</clipPath>
<clipPath id="clip_2">
<path transform="matrix(.24,0,0,.24,0,0)" d="M0 0H2431V2339H0Z" clip-rule="evenodd"/>
</clipPath>
<clipPath id="clip_3">
<path transform="matrix(.24,0,0,.24,0,0)" d="M522.3782 504.55033H1906.7532V1860.8003H522.3782Z" clip-rule="evenodd"/>
</clipPath>
</defs>
<g>
<g clip-path="url(#clip_0)">
<path transform="matrix(.75,0,0,.75,0,0)" d="M0 0H778V749H0Z" fill="#ffffff"/>
</g>
<g clip-path="url(#clip_1)">
<g>
<g clip-path="url(#clip_2)">
<path transform="matrix(2.1924313,0,0,2.1924313,0,0)" d="M0 0H266V256H0Z" fill="#084653"/>
</g>
</g>
</g>
<g clip-path="url(#clip_3)">
<path transform="matrix(3.385445,0,0,3.3906253,125.60894,121.09207)" d="M48.854 0C21.839 0 0 22 0 49.217 0 70.973 13.993 89.389 33.405 95.907 35.832 96.396999 36.721 94.848 36.721 93.545 36.721 92.404 36.641 88.493 36.641 84.418 23.050999 87.352 20.220999 78.551 20.220999 78.551 18.036999 72.847 14.800999 71.381008 14.800999 71.381008 10.352999 68.366008 15.124999 68.366008 15.124999 68.366008 20.058999 68.692 22.647999 73.41801 22.647999 73.41801 27.015 80.91401 34.052 78.796009 36.883 77.492008 37.287 74.314 38.582 72.114009 39.957 70.892009 29.118 69.75101 17.714 65.51401 17.714 46.609006 17.714 41.231008 19.654002 36.831007 22.728 33.409006 22.243 32.187005 20.544 27.134005 23.214 20.371005 23.214 20.371005 27.339 19.067004 36.64 25.423005 40.639448 24.34097 44.710779 23.797636 48.854 23.793005 52.979 23.793005 57.184 24.364005 61.067 25.423005 70.369 19.067006 74.494 20.371005 74.494 20.371005 77.164 27.134005 75.464008 32.187005 74.979007 33.409006 78.134 36.831007 79.994 41.231004 79.994 46.609006 79.994 65.51401 68.590007 69.66901 57.670007 70.892009 59.450006 72.44 60.986009 75.37301 60.986009 80.018009 60.986009 86.618007 60.906007 91.91501 60.906007 93.54401 60.906007 94.84801 61.796007 96.397 64.22201 95.908008 83.63401 89.38801 97.62701 70.97301 97.62701 49.217004 97.707 22 75.788 0 48.854 0Z" fill="#ffffff" fill-rule="evenodd"/>
</g>
<path transform="matrix(1,0,0,-1,0,570)" d="M125.37076 123.598979H457.93568V448.90794H125.37076Z" fill-opacity="0"/>
</g>
</svg>
