<?xml version="1.0" standalone="no"?>
<!DOCTYPE svg PUBLIC "-//W3C//DTD SVG 20010904//EN"
 "http://www.w3.org/TR/2001/REC-SVG-20010904/DTD/svg10.dtd">
<svg version="1.0" xmlns="http://www.w3.org/2000/svg"
 width="1024.000000pt" height="1021.000000pt" viewBox="0 0 1024.000000 1021.000000"
 preserveAspectRatio="xMidYMid meet">

<g transform="translate(0.000000,1021.000000) scale(0.100000,-0.100000)"
fill="#000000" stroke="none">
<path d="M4404 10199 c-106 -18 -188 -69 -227 -143 -16 -31 -21 -58 -21 -111
0 -126 50 -183 212 -241 171 -60 207 -84 218 -140 12 -65 -45 -126 -130 -138
-86 -13 -150 21 -191 103 -9 18 -20 29 -25 25 -4 -5 -10 -53 -14 -106 l-6 -97
37 -8 c21 -4 72 -7 114 -6 229 2 378 110 379 273 0 145 -57 206 -255 270 -103
34 -163 66 -179 99 -36 69 32 142 133 143 59 0 101 -21 137 -67 14 -19 30 -35
33 -35 9 0 33 149 26 160 -8 12 -100 30 -148 29 -23 -1 -65 -5 -93 -10z"/>
<path d="M5802 10171 c-101 -35 -162 -123 -162 -234 0 -90 45 -145 210 -261
93 -65 110 -87 110 -139 0 -31 -7 -46 -34 -73 -31 -31 -39 -34 -95 -34 -106 0
-172 51 -187 143 -4 21 -11 36 -17 34 -8 -2 -77 -168 -77 -185 0 -7 107 -49
150 -60 185 -45 342 -5 405 103 36 61 49 135 35 196 -15 61 -60 108 -194 204
-135 95 -161 144 -111 203 69 82 230 34 264 -78 6 -22 15 -40 19 -40 4 1 22
35 41 76 29 63 32 77 20 85 -107 72 -268 98 -377 60z"/>
<path d="M6404 10063 c-3 -10 -11 -34 -18 -54 l-13 -35 99 -24 c55 -12 102
-29 105 -36 8 -20 -146 -496 -206 -636 l-18 -43 106 -35 c58 -20 107 -35 109
-35 1 1 17 58 36 126 31 113 101 335 157 497 25 74 21 73 150 18 l76 -32 17
54 c9 30 15 56 14 57 -2 1 -70 21 -153 44 -82 24 -217 68 -300 97 -82 30 -151
54 -153 54 -1 0 -5 -8 -8 -17z"/>
<path d="M3568 10008 l-56 -20 -6 -102 c-17 -311 -28 -478 -42 -625 -8 -90
-14 -165 -12 -167 2 -1 29 5 61 14 l57 17 0 122 0 122 122 40 c80 26 127 36
134 30 6 -5 39 -49 73 -98 l62 -89 107 36 c59 19 109 36 111 38 2 2 -20 32
-48 66 -121 146 -333 411 -411 513 -46 61 -86 113 -89 116 -3 3 -31 -3 -63
-13z m117 -373 c34 -44 65 -85 68 -92 5 -7 -19 -20 -70 -37 -43 -14 -84 -26
-91 -26 -13 0 -17 152 -6 223 8 46 13 43 99 -68z"/>
<path d="M3000 9783 c-74 -41 -198 -105 -275 -141 -77 -35 -143 -68 -148 -72
-9 -7 34 -100 46 -100 5 0 27 13 50 29 23 15 62 38 86 51 42 21 45 21 57 5 20
-27 258 -503 284 -567 13 -32 27 -58 32 -58 5 0 25 10 46 23 20 13 63 36 95
50 l59 27 -20 32 c-58 95 -95 162 -198 364 -63 121 -114 228 -114 236 0 11 30
29 86 52 47 20 90 36 95 36 5 0 9 2 9 5 0 7 -50 105 -53 104 -1 0 -63 -34
-137 -76z"/>
<path d="M7225 9723 c-14 -32 -68 -134 -120 -228 -150 -273 -168 -326 -140
-422 44 -149 300 -297 458 -263 102 22 159 77 256 251 35 63 97 170 138 238
40 68 72 125 71 126 -2 1 -28 15 -59 32 l-55 31 -63 -126 c-135 -274 -213
-392 -282 -428 -46 -23 -120 -18 -180 14 -100 52 -120 116 -74 238 27 73 133
265 220 399 l55 85 -62 31 c-34 17 -79 42 -100 55 l-37 23 -26 -56z"/>
<path d="M2381 9443 c-19 -15 -60 -41 -92 -58 l-58 -31 75 -109 c109 -159 213
-325 289 -461 37 -66 69 -121 71 -123 2 -2 28 12 57 31 29 20 72 45 95 57 l42
21 -76 110 c-94 137 -243 377 -309 498 -27 50 -52 92 -55 92 -3 0 -20 -12 -39
-27z"/>
<path d="M8084 9167 c-79 -108 -300 -372 -391 -468 -40 -42 -73 -78 -73 -81 0
-11 258 -225 320 -266 120 -79 263 -103 372 -62 98 37 211 150 271 270 27 55
32 75 32 140 0 62 -5 85 -28 131 -30 61 -117 151 -247 253 -41 33 -102 83
-136 112 l-60 52 -60 -81z m248 -184 c123 -118 135 -207 46 -345 -141 -218
-317 -275 -477 -155 -70 53 -69 55 11 154 137 168 342 403 351 403 4 0 36 -26
69 -57z"/>
<path d="M1955 9133 c-58 -23 -158 -96 -194 -142 -102 -128 -97 -273 12 -366
72 -61 124 -66 291 -24 138 35 168 39 203 24 35 -15 63 -59 63 -100 0 -54 -55
-121 -122 -149 -52 -22 -82 -20 -139 8 -27 14 -50 22 -52 18 -3 -4 19 -46 48
-95 l51 -87 74 36 c88 45 196 146 230 219 28 58 37 148 21 198 -17 51 -65 113
-112 144 -55 36 -127 35 -284 -6 -152 -39 -178 -40 -216 -2 -51 52 -29 132 50
182 51 33 102 37 158 14 20 -8 38 -14 40 -12 2 2 -10 33 -27 68 -16 35 -30 70
-30 77 0 16 -16 15 -65 -5z"/>
<path d="M5006 8968 c-4 -13 -26 -749 -26 -860 0 -50 3 -58 19 -58 16 0 19 12
24 118 4 64 10 250 14 412 4 177 10 281 14 260 5 -19 19 -186 34 -370 33 -435
31 -422 58 -418 21 3 24 20 78 393 31 215 59 399 62 410 4 11 4 -38 2 -110 -3
-71 -8 -259 -11 -417 -7 -284 -7 -288 13 -288 19 0 21 8 26 158 4 86 9 261 12
387 3 127 8 265 11 308 l5 77 -40 0 c-23 0 -41 -1 -41 -3 0 -13 -111 -762
-114 -764 -1 -2 -15 156 -30 350 -35 435 -32 421 -74 425 -20 2 -34 -2 -36
-10z"/>
<path d="M4682 8954 c-44 -31 -56 -70 -60 -211 -6 -196 24 -463 69 -607 21
-68 72 -136 103 -136 62 0 97 74 104 217 5 120 -1 153 -28 153 -18 0 -19 -7
-19 -94 1 -137 -22 -190 -74 -170 -54 20 -107 306 -107 576 0 138 7 170 41
189 20 10 26 8 50 -19 17 -19 32 -52 39 -89 19 -92 20 -92 48 -75 10 7 9 23
-2 84 -17 88 -44 147 -82 177 -32 25 -52 26 -82 5z"/>
<path d="M5595 8918 c-11 -49 -145 -881 -142 -884 6 -7 199 -36 204 -31 3 3 8
26 10 50 l5 43 -78 12 c-43 7 -79 13 -80 15 -2 1 26 178 61 392 36 215 65 398
65 408 0 26 -39 22 -45 -5z"/>
<path d="M4343 8888 c-19 -5 -33 -15 -33 -23 0 -8 18 -174 40 -367 22 -194 39
-359 38 -366 -2 -7 -60 148 -129 345 l-125 358 -30 -3 c-16 -2 -33 -7 -37 -11
-5 -5 38 -208 95 -452 95 -409 105 -444 123 -441 11 2 21 5 22 5 1 1 -39 175
-88 387 -49 211 -88 388 -87 392 2 4 45 -113 97 -260 184 -527 170 -492 197
-492 20 0 23 4 19 28 -12 67 -86 755 -83 769 2 8 43 -159 93 -372 86 -372 99
-415 125 -389 8 8 -179 845 -198 885 -5 13 -14 14 -39 7z"/>
<path d="M5957 8843 c-4 -21 -7 -123 -7 -228 l-1 -190 -118 -215 c-117 -211
-123 -230 -81 -230 9 0 49 66 104 170 49 93 91 169 92 167 2 -2 0 -88 -5 -192
-9 -195 -7 -204 30 -205 14 0 17 30 22 245 l5 246 111 197 c90 162 107 198 95
205 -8 5 -21 7 -27 4 -7 -3 -41 -58 -77 -123 -111 -207 -103 -207 -95 -1 5
117 3 177 -3 177 -6 0 -17 2 -25 6 -10 4 -16 -5 -20 -33z"/>
<path d="M3840 8783 c-215 -75 -563 -242 -753 -360 -720 -453 -1262 -1103
-1567 -1880 -101 -258 -118 -350 -85 -476 41 -160 135 -262 313 -343 2 -1 -4
-49 -12 -107 -21 -139 -21 -196 0 -204 36 -14 48 11 66 133 9 65 17 127 18
137 0 15 11 17 84 17 142 0 250 45 347 143 59 60 86 111 148 279 92 247 179
416 322 628 329 487 793 861 1334 1075 66 26 121 49 123 50 5 4 -21 65 -28 65
-18 0 -198 -73 -304 -124 -200 -95 -407 -224 -578 -362 l-76 -62 -6 34 c-4 18
-20 47 -36 63 -17 16 -30 31 -30 34 0 9 171 138 270 204 194 129 435 254 625
324 50 18 96 37 103 42 19 14 14 45 -8 57 -17 9 -46 1 -163 -46 -209 -83 -421
-194 -609 -318 l-28 -18 17 38 c9 22 16 65 16 99 l0 61 86 51 c128 76 334 175
486 234 137 53 162 72 135 104 -17 21 -23 20 -152 -29 -148 -56 -342 -149
-485 -232 l-113 -66 -26 21 c-33 26 -99 44 -130 37 -13 -4 -24 -4 -24 -2 0 2
42 31 93 63 195 126 432 245 647 325 118 44 135 56 125 87 -10 31 -42 27 -168
-23 -362 -142 -676 -322 -967 -555 l-125 -100 -29 35 c-15 19 -41 40 -57 47
l-29 12 107 88 c314 255 661 459 1023 602 80 31 146 58 148 59 4 5 -20 66 -26
65 -4 0 -14 -3 -22 -6z m-624 -778 c101 -42 68 -196 -70 -322 -79 -72 -156
-107 -238 -108 -61 0 -70 3 -95 28 -97 97 75 349 275 403 63 17 86 17 128 -1z
m-569 -139 c38 -41 58 -125 49 -203 -9 -78 -69 -238 -105 -278 -16 -19 -33
-51 -37 -70 -9 -50 -56 -95 -99 -95 -68 0 -109 101 -109 265 0 147 41 268 122
357 68 76 123 83 179 24z m413 -386 c53 -27 76 -75 60 -125 -12 -37 -89 -114
-140 -140 -169 -87 -374 -67 -403 40 -3 12 9 47 31 89 32 59 45 73 92 100 119
67 270 82 360 36z m-808 -20 c32 -25 64 -100 73 -171 16 -126 -37 -296 -115
-370 -97 -92 -181 -42 -211 125 -40 230 131 512 253 416z m437 -340 c36 0 91
-61 91 -101 0 -142 -247 -310 -418 -284 -57 8 -112 58 -112 101 0 71 96 186
200 239 58 30 164 56 195 50 11 -3 31 -5 44 -5z m-759 -176 c72 -61 112 -208
91 -335 -26 -157 -111 -247 -196 -206 -88 42 -138 186 -115 334 12 79 60 183
97 213 36 28 85 26 123 -6z m530 -279 c59 -30 65 -86 21 -174 -88 -174 -367
-289 -458 -189 -29 33 -33 63 -17 119 27 90 168 215 283 249 45 14 140 11 171
-5z m-757 -254 c71 -63 120 -196 121 -331 1 -139 -49 -230 -129 -230 -72 0
-177 149 -195 277 -14 101 15 226 66 279 42 45 89 47 137 5z m556 -196 c109
-56 20 -289 -150 -388 -25 -15 -76 -34 -112 -43 -79 -20 -119 -9 -144 39 -21
41 -13 129 17 192 42 87 148 178 240 206 42 12 119 10 149 -6z"/>
<path d="M6353 8757 l-10 -34 136 -53 c366 -142 737 -360 1046 -615 l97 -80
-30 -12 c-28 -11 -66 -50 -75 -76 -2 -6 -60 35 -130 90 -300 242 -690 462
-1024 579 -88 31 -118 28 -118 -12 0 -22 15 -30 185 -95 161 -62 390 -177 552
-278 122 -75 148 -96 105 -86 -32 8 -98 -10 -130 -36 l-27 -20 -86 51 c-207
122 -603 298 -644 285 -37 -12 -35 -59 3 -71 131 -40 434 -179 600 -277 l87
-51 0 -57 c0 -31 7 -76 15 -99 l15 -42 -28 18 c-186 123 -470 270 -654 338
-97 36 -121 38 -132 9 -11 -28 11 -45 110 -82 202 -77 414 -185 599 -306 121
-79 295 -211 295 -224 0 -4 -11 -18 -25 -31 -13 -12 -29 -38 -35 -56 -7 -19
-13 -34 -16 -34 -2 0 -41 30 -86 67 -194 156 -492 329 -739 427 -64 25 -120
46 -126 46 -6 0 -14 -15 -19 -32 l-10 -33 116 -46 c248 -99 508 -248 730 -419
125 -96 406 -379 501 -505 198 -261 344 -530 445 -820 41 -118 72 -173 132
-237 93 -100 206 -148 347 -148 96 0 85 17 106 -160 13 -111 20 -130 49 -130
38 0 42 22 25 152 -9 67 -18 131 -21 141 -4 13 5 22 38 36 97 42 196 138 242
235 33 71 45 126 46 211 0 83 -12 130 -74 298 -340 918 -1036 1686 -1921 2121
-134 66 -420 186 -443 186 -5 0 -13 -15 -19 -33z m852 -776 c116 -53 225 -180
241 -279 27 -171 -207 -173 -377 -3 -202 202 -109 395 136 282z m494 -85 c42
-22 105 -96 134 -159 98 -205 61 -397 -75 -397 -67 0 -125 56 -177 172 -65
143 -58 305 15 369 36 31 63 35 103 15z m-242 -417 c164 -62 244 -174 181
-254 -88 -112 -354 -74 -487 70 -34 36 -41 52 -41 84 0 115 173 164 347 100z
m623 -14 c38 -20 94 -89 119 -148 59 -137 50 -326 -19 -409 -71 -85 -198 2
-250 170 -14 43 -20 93 -20 151 0 189 71 287 170 236z m-353 -367 c184 -68
306 -238 229 -321 -54 -58 -174 -58 -300 1 -162 76 -251 237 -173 310 46 43
143 47 244 10z m697 -149 c35 -28 81 -119 96 -194 34 -163 -37 -345 -141 -361
-106 -17 -197 174 -169 354 27 171 130 267 214 201z m-411 -309 c116 -57 227
-188 227 -268 0 -54 -32 -86 -106 -106 -33 -10 -124 12 -190 44 -89 43 -149
101 -190 181 -37 74 -41 101 -20 138 23 41 54 52 136 48 61 -3 88 -10 143 -37z
m652 -233 c55 -55 85 -188 66 -292 -15 -81 -55 -158 -111 -217 -38 -39 -53
-48 -81 -48 -80 0 -129 84 -129 220 0 256 145 447 255 337z m-488 -212 c125
-62 215 -187 217 -300 1 -95 -47 -135 -141 -116 -125 25 -238 113 -296 231
-45 91 -45 150 1 191 28 25 40 29 91 29 47 0 72 -7 128 -35z"/>
<path d="M1435 8595 c-5 -2 -22 -6 -37 -9 -46 -10 -122 -80 -220 -203 -53 -65
-107 -129 -121 -142 l-26 -23 97 -75 c117 -92 326 -272 442 -382 82 -78 100
-91 100 -72 0 4 27 38 60 74 33 36 60 69 60 74 0 4 -19 21 -43 38 -87 62 -240
200 -225 203 20 4 295 -43 365 -62 l53 -14 42 51 c23 29 60 71 82 95 22 23 38
42 35 42 -36 0 -390 50 -455 65 -22 5 -22 5 -3 42 20 40 25 116 10 156 -14 37
-70 96 -110 116 -38 20 -89 32 -106 26z m-16 -189 c15 -8 44 -33 64 -55 49
-54 51 -106 7 -174 -16 -26 -33 -47 -38 -47 -9 0 -206 173 -217 190 -8 13 28
55 70 81 36 23 76 24 114 5z"/>
<path d="M8884 8509 c-45 -52 -330 -311 -451 -412 l-133 -111 48 -50 c26 -28
59 -65 72 -83 l25 -32 92 88 c147 141 438 398 505 445 l23 16 -46 43 c-25 23
-58 59 -73 80 -16 20 -32 37 -36 37 -4 0 -15 -10 -26 -21z"/>
<path d="M9040 8000 c-94 -23 -232 -107 -282 -172 -74 -98 -97 -217 -63 -334
46 -160 169 -321 289 -379 151 -73 368 -24 507 115 125 125 139 282 43 476
-111 227 -301 340 -494 294z m328 -207 c92 -57 128 -183 80 -282 -55 -114
-248 -239 -386 -249 -82 -5 -130 8 -178 51 -128 112 -98 282 70 402 165 116
309 143 414 78z"/>
<path d="M814 7883 c-42 -79 -144 -252 -181 -309 -13 -21 -10 -23 60 -56 104
-50 445 -245 552 -317 l90 -60 29 52 c15 29 70 123 121 209 l94 157 -46 26
c-25 14 -47 25 -49 25 -2 0 -26 -44 -53 -97 -76 -150 -57 -144 -195 -65 -66
37 -121 72 -123 78 -2 6 26 56 62 113 36 56 65 104 65 106 0 5 -93 56 -95 53
-1 -2 -25 -48 -54 -103 -28 -55 -55 -106 -59 -113 -7 -10 -31 0 -103 43 -52
31 -98 60 -103 65 -5 5 20 56 58 120 37 62 66 113 64 114 -16 12 -77 46 -81
46 -3 0 -27 -39 -53 -87z"/>
<path d="M530 7398 c0 -7 -11 -36 -24 -64 l-24 -51 52 -40 c42 -34 336 -292
386 -340 13 -12 -10 -14 -180 -8 -107 3 -242 8 -300 11 l-105 5 -38 -93 c-21
-51 -40 -98 -43 -105 -9 -20 42 -22 468 -25 l406 -3 24 60 23 60 -70 58 c-38
32 -184 169 -322 304 -139 134 -253 239 -253 231z"/>
<path d="M4928 7390 c-511 -46 -996 -262 -1355 -603 -66 -63 -73 -73 -73 -108
0 -28 6 -42 22 -53 43 -30 76 -20 142 41 583 540 1380 716 2124 468 284 -95
539 -246 771 -460 58 -53 77 -65 104 -65 38 0 62 21 72 62 6 24 -1 36 -56 94
-250 260 -669 487 -1062 575 -210 46 -492 67 -689 49z"/>
<path d="M9760 7056 c-112 -49 -439 -163 -575 -201 -66 -18 -119 -37 -118 -42
5 -17 66 -188 69 -191 1 -2 15 3 31 11 39 20 315 119 319 114 5 -5 -123 -165
-208 -260 -48 -53 -68 -83 -65 -95 3 -9 21 -61 40 -115 l33 -99 74 99 c40 54
108 140 149 190 63 77 78 90 86 77 64 -105 173 -134 285 -76 129 65 135 152
30 432 -33 87 -60 166 -60 174 0 21 -2 20 -90 -18z m99 -235 c18 -56 14 -96
-15 -131 -48 -56 -142 -77 -204 -45 -30 16 -64 64 -75 106 -6 26 -4 27 132 72
76 26 141 43 144 39 3 -4 11 -22 18 -41z"/>
<path d="M4304 6639 c-39 -5 -129 -25 -200 -43 -586 -153 -616 -159 -892 -160
l-194 -2 -313 -374 c-173 -206 -311 -378 -307 -382 19 -18 204 -33 417 -32
314 1 511 28 976 134 346 79 378 83 584 76 217 -7 322 -26 524 -96 81 -27 150
-50 154 -50 4 0 7 198 7 440 l0 439 -37 10 c-156 41 -551 63 -719 40z"/>
<path d="M5490 6643 c-89 -8 -200 -26 -257 -40 l-63 -15 0 -439 c0 -242 3
-439 8 -439 4 0 72 22 152 49 203 70 319 91 525 98 202 7 223 4 610 -82 487
-108 650 -130 960 -130 188 1 399 16 414 30 6 7 -6 22 -325 402 l-301 358
-194 1 c-224 1 -352 19 -601 84 -84 22 -211 56 -283 74 -71 19 -170 39 -220
45 -82 10 -341 13 -425 4z"/>
<path d="M206 6539 c-2 -8 -13 -48 -25 -89 -38 -127 -40 -115 26 -129 104 -23
425 -119 558 -166 182 -65 171 -64 180 -18 4 21 17 68 30 105 l24 68 -37 9
c-20 6 -74 19 -120 31 -147 37 -491 146 -614 195 -11 4 -19 2 -22 -6z"/>
<path d="M10075 6229 c-16 -5 -104 -20 -195 -34 -321 -49 -355 -56 -417 -85
-72 -33 -115 -88 -132 -171 -32 -146 14 -333 101 -416 83 -80 161 -88 459 -49
101 14 215 28 252 31 64 6 68 8 63 28 -3 12 -6 36 -6 52 -1 57 -7 59 -121 36
-243 -48 -412 -66 -485 -51 -102 21 -163 114 -152 230 12 119 115 157 526 198
l174 16 -7 31 c-3 16 -11 66 -17 110 -5 44 -11 80 -12 81 0 1 -14 -3 -31 -7z"/>
<path d="M70 5962 c0 -28 -2 -57 -5 -64 -5 -12 39 -18 242 -33 136 -10 256
-21 265 -24 14 -5 -9 -27 -100 -97 -117 -91 -318 -234 -404 -289 l-45 -28 -6
-76 c-3 -42 -4 -77 -2 -80 3 -2 73 -8 157 -12 187 -11 453 -35 571 -53 l87
-13 0 41 c0 23 3 51 6 64 6 21 3 22 -47 22 -65 0 -479 36 -485 43 -6 6 315
245 459 342 113 76 117 80 117 114 0 20 3 53 6 74 l7 37 -59 0 c-119 0 -706
60 -748 76 -13 5 -16 -2 -16 -44z"/>
<path d="M1290 5305 l0 -75 1728 -2 1727 -3 6 -92 c5 -76 11 -103 37 -156 79
-159 260 -241 426 -193 74 22 119 51 174 110 63 69 84 123 91 236 l6 95 1728
3 1727 2 0 75 0 75 -1804 0 -1805 0 -3 -158 c-3 -154 -4 -160 -31 -200 -60
-91 -168 -125 -262 -83 -65 29 -83 46 -111 106 -22 45 -24 64 -24 193 l0 142
-1805 0 -1805 0 0 -75z"/>
<path d="M9425 5217 c-4 -40 -3 -62 5 -67 6 -4 52 -12 103 -19 51 -7 164 -27
252 -45 l160 -32 -83 -32 c-46 -18 -171 -60 -277 -95 l-193 -62 -4 -43 -3 -43
152 -80 c178 -93 344 -186 358 -200 7 -7 -79 -9 -261 -7 l-271 3 -11 -105 c-6
-58 -10 -105 -9 -106 3 -2 822 18 823 20 1 0 4 37 8 82 l6 81 -44 17 c-40 16
-441 238 -459 256 -10 9 127 56 373 129 l165 49 12 83 c7 46 11 84 10 85 -1 2
-124 30 -272 63 -149 33 -329 76 -401 95 l-132 34 -7 -61z"/>
<path d="M1303 4973 c3 -93 8 -175 11 -183 5 -13 57 -15 399 -12 276 3 406 0
436 -8 176 -47 292 -434 185 -617 -24 -41 -40 -50 -395 -229 -354 -177 -371
-186 -365 -209 8 -30 124 -287 136 -299 4 -4 224 102 489 235 l481 244 0 102
c0 232 -65 569 -163 838 -32 90 -103 252 -122 282 l-15 23 -542 0 -541 0 6
-167z"/>
<path d="M2767 5103 c-3 -21 -11 -105 -18 -186 -24 -298 18 -450 209 -743 l67
-103 265 136 c146 75 268 139 272 142 9 8 -21 91 -33 91 -4 0 -65 -28 -135
-62 -126 -62 -128 -63 -214 -63 -76 0 -92 3 -152 33 -187 92 -258 313 -160
495 33 62 99 122 170 155 52 25 70 27 205 30 l148 4 -3 51 -3 52 -306 3 -306
2 -6 -37z"/>
<path d="M6847 5133 c-4 -3 -7 -28 -7 -54 l0 -47 148 -4 c136 -3 152 -5 208
-31 77 -36 145 -104 181 -182 24 -51 28 -73 28 -145 0 -76 -4 -93 -32 -151
-39 -79 -102 -140 -181 -177 -47 -22 -71 -27 -143 -27 -85 0 -86 0 -213 63
-70 34 -129 62 -132 62 -10 0 -45 -83 -37 -90 4 -4 128 -68 275 -143 l267
-136 77 121 c88 139 155 276 178 363 24 90 30 236 17 397 -6 78 -14 153 -17
166 l-4 22 -304 0 c-166 0 -306 -3 -309 -7z"/>
<path d="M7816 5073 c-150 -300 -256 -728 -260 -1047 l-1 -130 475 -242 c261
-134 479 -243 483 -244 9 0 100 186 135 276 l20 50 -350 175 c-193 96 -364
185 -380 198 -51 42 -71 95 -76 201 -9 206 78 395 206 452 41 19 67 20 445 17
l402 -3 6 52 c4 28 8 109 10 179 l4 128 -542 3 -543 2 -34 -67z"/>
<path d="M325 4970 c-88 -10 -197 -19 -241 -19 l-82 -1 5 -67 c3 -38 7 -69 8
-71 1 -1 24 2 51 8 98 20 367 50 455 50 171 0 238 -60 239 -212 0 -61 -3 -71
-30 -102 -37 -42 -90 -61 -225 -80 -88 -13 -363 -36 -431 -36 -14 0 -23 -3
-20 -8 2 -4 9 -52 15 -107 7 -54 13 -101 16 -103 2 -2 32 1 67 7 35 6 160 22
278 35 118 14 239 32 268 41 107 32 170 122 179 256 15 207 -68 372 -208 413
-65 20 -137 19 -344 -4z"/>
<path d="M3110 4921 c-84 -27 -151 -95 -175 -175 -19 -63 -19 -90 1 -155 43
-146 225 -222 361 -152 189 97 188 365 -2 463 -43 22 -144 33 -185 19z"/>
<path d="M6980 4921 c-145 -47 -221 -192 -175 -332 61 -182 300 -237 431 -97
54 57 69 95 69 178 0 54 -6 85 -19 110 -26 49 -74 98 -121 122 -43 22 -144 33
-185 19z"/>
<path d="M3367 4096 c-141 -84 -260 -155 -263 -158 -8 -9 131 -289 184 -368
62 -93 154 -182 255 -248 87 -57 288 -162 310 -162 11 0 317 467 335 510 3 7
-78 64 -82 58 -2 -2 -38 -56 -80 -121 -66 -101 -87 -124 -137 -157 -72 -47
-141 -64 -228 -58 -86 6 -148 35 -215 98 -75 71 -110 150 -110 250 -1 151 55
241 209 337 155 95 144 83 112 132 -15 22 -28 41 -30 41 -1 0 -118 -69 -260
-154z"/>
<path d="M6576 4210 c-15 -22 -24 -44 -22 -49 3 -4 45 -31 94 -59 122 -71 175
-120 214 -200 30 -61 33 -75 33 -157 -1 -78 -4 -98 -28 -147 -37 -75 -104
-143 -175 -176 -49 -23 -70 -27 -152 -27 -76 0 -104 4 -142 22 -71 33 -141
104 -209 214 -33 55 -63 99 -65 99 -16 0 -82 -55 -77 -64 3 -6 78 -125 165
-263 l160 -253 130 66 c229 117 349 213 444 356 38 57 184 343 184 361 0 5
-295 183 -481 291 l-46 26 -27 -40z"/>
<path d="M3633 4001 c-52 -13 -122 -60 -152 -102 -55 -75 -64 -185 -22 -268
28 -53 102 -116 156 -131 55 -15 150 -8 193 14 44 23 95 75 118 122 28 56 26
174 -3 230 -25 47 -82 101 -128 120 -42 17 -122 25 -162 15z"/>
<path d="M6485 4001 c-95 -25 -165 -91 -192 -180 -29 -102 -1 -196 81 -268 55
-49 116 -68 195 -60 67 6 108 24 154 71 54 53 72 101 72 186 0 64 -4 82 -27
121 -31 52 -77 95 -124 115 -41 17 -122 25 -159 15z"/>
<path d="M9539 3897 c-120 -63 -119 -244 1 -304 52 -27 96 -29 147 -8 73 31
105 80 107 161 1 131 -137 213 -255 151z"/>
<path d="M534 3872 c-142 -90 -106 -287 59 -326 63 -15 160 39 187 104 17 42
8 134 -16 167 -37 50 -70 67 -137 71 -48 2 -69 -1 -93 -16z"/>
<path d="M2305 3464 c-253 -151 -461 -279 -463 -284 -4 -10 105 -180 162 -256
l32 -42 349 212 350 211 65 0 c93 0 178 -43 275 -140 97 -97 150 -200 150
-290 l0 -61 -209 -329 c-116 -182 -216 -340 -223 -351 -13 -20 -8 -26 104
-103 65 -45 132 -91 149 -102 l32 -19 291 461 292 461 -75 112 c-41 61 -105
149 -142 196 -91 114 -307 329 -424 422 -83 66 -244 179 -252 177 -2 0 -210
-124 -463 -275z"/>
<path d="M7375 3684 c-285 -199 -543 -461 -733 -746 -35 -53 -62 -103 -60
-111 4 -18 571 -917 578 -917 6 1 269 185 282 198 6 6 -65 127 -202 341 -116
183 -218 348 -227 368 -51 123 106 367 297 461 43 21 69 27 120 27 l65 0 352
-212 351 -211 55 76 c30 43 76 111 101 152 42 67 44 75 29 84 -10 5 -217 128
-461 273 -244 145 -448 266 -455 268 -7 2 -48 -21 -92 -51z"/>
<path d="M4145 3350 c-77 -143 -141 -264 -143 -270 -5 -13 253 -182 345 -225
134 -64 205 -78 398 -79 94 0 200 3 237 7 l66 8 6 112 c3 62 8 201 11 310 l5
197 -50 0 c-27 0 -50 -1 -51 -2 0 -2 -4 -67 -8 -144 -7 -132 -9 -146 -39 -207
-152 -309 -600 -246 -673 94 -19 87 -4 149 67 287 35 68 64 125 64 128 0 5
-77 44 -87 44 -4 0 -71 -117 -148 -260z"/>
<path d="M5888 3589 c-21 -11 -38 -22 -38 -24 0 -3 24 -49 54 -102 70 -126 90
-197 83 -281 -24 -250 -294 -400 -517 -287 -143 73 -200 186 -200 402 l0 113
-54 0 -54 0 4 -122 c2 -68 7 -207 10 -310 l6 -187 67 -8 c36 -4 143 -7 236 -7
195 1 270 16 409 83 78 38 319 192 332 212 7 12 -277 539 -291 539 -5 -1 -27
-10 -47 -21z"/>
<path d="M4500 3454 c-44 -19 -106 -78 -130 -125 -87 -168 42 -374 233 -372
137 1 242 98 254 233 15 157 -99 281 -256 280 -37 -1 -82 -8 -101 -16z"/>
<path d="M5532 3455 c-55 -24 -98 -63 -128 -117 -55 -101 -32 -246 51 -316
142 -120 361 -65 419 106 59 172 -62 343 -243 342 -37 -1 -81 -7 -99 -15z"/>
<path d="M1060 3262 c-152 -99 -328 -205 -470 -282 -63 -34 -116 -63 -118 -65
-2 -1 7 -18 20 -38 13 -19 28 -42 33 -51 9 -15 14 -14 50 11 61 41 417 254
420 251 5 -5 -103 -351 -162 -519 l-59 -167 23 -28 c12 -16 28 -41 34 -56 6
-16 16 -28 21 -28 5 0 41 22 81 48 105 71 385 236 515 305 102 53 112 61 99
76 -8 9 -22 32 -32 51 -10 19 -19 37 -21 38 -1 2 -31 -15 -65 -39 -93 -63
-383 -238 -387 -234 -7 6 105 365 161 520 45 124 53 153 42 165 -7 8 -25 38
-41 66 l-29 51 -115 -75z"/>
<path d="M8965 3177 c-108 -110 -159 -259 -125 -362 29 -88 127 -159 220 -159
62 0 108 21 235 103 96 63 136 77 175 61 79 -33 97 -112 44 -196 -46 -75 -73
-89 -160 -88 -41 1 -74 -2 -72 -6 5 -11 141 -130 150 -130 17 0 79 65 122 128
87 128 114 268 68 358 -24 48 -91 110 -138 130 -82 34 -159 13 -314 -88 -109
-71 -155 -86 -198 -64 -22 11 -35 28 -43 56 -11 35 -9 44 15 94 35 70 79 100
153 101 29 0 53 2 53 6 0 11 -102 119 -113 119 -6 0 -39 -28 -72 -63z"/>
<path d="M3560 2270 c-140 -259 -256 -476 -258 -484 -3 -12 282 -156 309 -156
8 0 94 151 199 348 112 210 198 360 218 379 109 107 414 69 570 -72 84 -76 82
-62 67 -526 -7 -222 -10 -407 -6 -411 8 -9 340 -32 348 -24 6 6 31 772 32 989
l1 98 -132 64 c-291 139 -624 228 -962 255 -71 5 -129 10 -130 10 -1 0 -116
-212 -256 -470z"/>
<path d="M6320 2733 c-357 -25 -739 -127 -1038 -277 -88 -44 -92 -48 -92 -79
1 -137 30 -1051 34 -1055 7 -7 340 18 348 27 4 3 2 184 -4 401 -6 217 -8 412
-4 434 10 54 87 128 179 172 176 83 380 84 462 1 17 -18 114 -187 215 -376
101 -189 190 -345 196 -348 13 -5 191 73 270 118 l52 29 -205 378 c-113 207
-230 423 -260 480 -49 92 -57 102 -81 100 -15 -1 -47 -3 -72 -5z"/>
<path d="M8565 2548 c-15 -23 -47 -63 -71 -88 l-44 -47 90 -67 c113 -85 294
-236 434 -361 l108 -99 22 30 c11 16 42 52 68 80 27 28 48 55 47 60 0 5 -32
32 -72 61 -96 69 -328 262 -453 378 l-102 94 -27 -41z"/>
<path d="M1580 2487 c-83 -80 -391 -330 -488 -395 -34 -24 -62 -45 -62 -47 0
-3 35 -47 78 -98 42 -51 109 -134 147 -184 39 -51 72 -92 75 -92 3 0 22 15 44
34 l39 34 -74 83 c-40 46 -79 90 -87 100 -12 14 -1 26 98 107 80 65 116 89
124 82 7 -6 43 -53 81 -105 l69 -94 43 36 43 36 -23 26 c-85 93 -149 171 -145
175 3 3 45 37 93 75 68 53 92 67 102 58 7 -6 45 -53 84 -104 l71 -93 39 31
c22 17 39 33 39 36 0 2 -26 33 -57 69 -32 36 -99 118 -148 181 -50 64 -95 117
-100 118 -6 2 -44 -29 -85 -69z"/>
<path d="M8193 2120 c-73 -36 -173 -133 -203 -196 -29 -59 -36 -122 -20 -179
14 -51 76 -127 124 -152 47 -25 143 -19 266 16 141 41 172 41 217 -4 32 -32
35 -39 31 -80 -6 -51 -33 -89 -90 -127 -51 -35 -116 -37 -172 -7 -64 34 -61
21 22 -109 28 -45 37 -52 55 -46 51 15 117 63 188 134 108 108 140 202 107
312 -14 49 -91 136 -135 154 -45 19 -125 16 -208 -7 -213 -59 -259 -59 -290 1
-21 41 -12 81 27 126 54 62 121 79 197 53 18 -6 34 -9 37 -7 10 10 -61 147
-77 148 -9 0 -43 -14 -76 -30z"/>
<path d="M2114 1860 c-97 -19 -195 -91 -270 -196 -65 -91 -87 -160 -82 -254 6
-111 39 -174 141 -275 136 -134 290 -196 430 -174 203 32 394 269 374 464 -15
142 -144 303 -308 384 -114 56 -190 70 -285 51z m296 -151 c43 -22 95 -75 109
-112 16 -42 13 -141 -6 -189 -25 -66 -97 -169 -153 -222 -96 -90 -213 -120
-299 -77 -77 40 -131 125 -131 206 1 79 72 213 160 302 113 114 218 144 320
92z"/>
<path d="M7614 1617 c-18 -12 -40 -27 -50 -33 -16 -9 -10 -23 68 -145 118
-187 191 -309 186 -314 -7 -7 -354 100 -518 160 l-150 54 -48 -32 c-27 -18
-57 -36 -66 -42 -14 -9 -5 -29 78 -157 102 -159 205 -332 280 -470 l47 -87 49
31 c28 17 50 34 50 37 0 4 -11 23 -25 44 -14 20 -77 123 -140 228 -76 125
-109 189 -98 186 106 -30 389 -120 510 -163 84 -30 155 -54 159 -54 19 0 123
74 117 84 -4 6 -25 38 -47 71 -65 96 -262 432 -314 532 -26 51 -49 93 -52 92
-3 0 -19 -10 -36 -22z"/>
<path d="M2885 1311 c-39 -95 -237 -499 -292 -595 -18 -32 -24 -51 -16 -53 6
-2 49 -23 95 -46 46 -22 87 -41 91 -42 5 0 23 36 41 80 18 44 49 112 69 151
l36 72 87 -35 c78 -32 94 -35 164 -31 104 4 150 35 199 130 56 109 44 190 -38
259 -44 38 -70 52 -261 142 l-136 63 -39 -95z m285 -123 c42 -41 41 -103 0
-175 -32 -57 -71 -83 -120 -83 -30 0 -100 24 -100 34 0 3 30 66 67 140 l67
134 28 -10 c16 -6 42 -24 58 -40z"/>
<path d="M6775 1155 c-56 -23 -150 -59 -210 -80 -61 -21 -112 -40 -114 -41 -2
-2 19 -54 47 -116 62 -142 170 -422 212 -553 17 -55 33 -101 34 -102 2 -2 32
10 67 26 35 16 133 54 218 85 85 31 156 58 159 60 7 7 -30 96 -40 96 -4 0 -39
-14 -76 -31 -37 -17 -88 -39 -113 -49 l-46 -19 -13 27 c-25 55 -90 226 -90
238 0 7 53 30 118 52 79 26 116 44 115 53 -4 25 -28 89 -34 89 -3 0 -57 -22
-120 -49 -63 -28 -117 -47 -120 -43 -16 18 -81 214 -73 222 5 4 61 26 124 48
79 28 114 45 111 54 -19 61 -28 78 -41 77 -8 -1 -60 -20 -115 -44z"/>
<path d="M3567 1083 c-3 -10 -15 -58 -27 -108 -30 -122 -142 -484 -179 -579
-17 -42 -31 -78 -31 -80 0 -2 15 -7 34 -10 19 -4 119 -33 223 -66 103 -33 194
-60 201 -60 6 0 12 9 12 20 0 10 5 31 12 45 15 34 15 34 -127 69 l-116 28 7
32 c12 56 162 539 187 602 l24 61 -91 28 c-50 15 -98 30 -108 32 -10 3 -18 -2
-21 -14z"/>
<path d="M6165 956 c-88 -24 -226 -56 -306 -71 l-145 -28 13 -50 c7 -28 15
-52 17 -54 3 -3 108 25 193 52 13 4 97 -327 140 -558 26 -138 29 -148 48 -142
11 3 57 14 102 24 45 9 85 20 89 23 3 4 -6 46 -20 95 -29 100 -98 385 -126
516 -13 64 -15 90 -6 93 12 4 184 34 196 34 10 0 -14 103 -26 106 -5 1 -81
-17 -169 -40z"/>
<path d="M4391 853 c-41 -85 -181 -333 -303 -537 -65 -109 -118 -199 -116
-201 2 -2 30 -6 63 -10 l60 -6 53 106 53 107 57 -6 c31 -4 89 -12 129 -18 l72
-11 10 -51 c6 -28 15 -80 21 -115 10 -69 19 -81 63 -81 16 0 59 -5 98 -11 38
-7 72 -9 75 -6 3 3 -17 100 -45 216 -40 162 -141 625 -141 645 0 2 -19 6 -42
10 -24 4 -52 9 -63 12 -17 4 -25 -4 -44 -43z m30 -358 c13 -58 20 -108 16
-111 -9 -9 -177 17 -177 27 0 13 33 77 83 163 47 82 44 84 78 -79z"/>
<path d="M5544 791 c12 -101 18 -483 8 -480 -19 7 -273 284 -407 444 l-58 70
-79 0 -79 0 8 -180 c4 -99 7 -284 7 -410 l-2 -231 59 1 59 0 -6 270 -5 270
117 -120 c64 -66 173 -185 242 -265 l124 -145 71 2 71 2 -5 98 c-2 54 -4 238
-4 409 l0 311 -63 0 -63 -1 5 -45z"/>
</g>
</svg>
